<svg xmlns="http://www.w3.org/2000/svg" version="1.0" viewBox="0 0 992 864"><g fill="#E4BCBC" stroke="#E4BCBC" stroke-width="1.9"><path d="M248 432v216h496V216H248zm277.5-200c39.9 7.5 62.2 15.8 88 32.8 21.1 13.9 45 37.8 57.8 57.7 23 35.9 33.7 71.6 33.7 112.3 0 55.8-19.9 105.1-58.9 145.4-27.5 28.6-65.7 49.8-105.1 58.4-15.4 3.4-46.5 4.6-50.5 2-4.6-3-2.8-10.9 2.8-12 1.2-.3 9.6-.7 18.7-1 13.9-.4 18.3-1 28-3.5 43.2-11.1 76.7-31.6 104.9-64.1 22.3-25.8 37.5-58.4 43.7-94 2.3-13.3 2.6-47.8.5-58.5-10.5-54.7-35-94-78.6-126.7-27.9-20.9-62-33.2-99.1-35.8-32.3-2.3-65.7 4.4-96.1 19.5-15.2 7.5-19.7 10.4-35.4 23.2-36.2 29.2-58.2 65.3-68.6 112.3-3.1 14.1-4.2 40.6-2.3 55.8 4.6 37.8 19.7 73 44 102.7 8.4 10.2 25.2 25.9 36.1 33.7 10.7 7.7 31.6 18.4 43.4 22.4 11.5 3.9 23.7 4 31.8.2 19.3-9.1 31-35.8 32.4-74.3.5-14.2.3-16.9-1.5-24.4-3.6-13.8-9.5-21.8-20.7-27.8-3.3-1.7-14.3-5.9-24.4-9.2-28-9.3-44.5-19.2-61.1-36.8-13.7-14.5-21.7-27.4-27.6-44.8-3.8-11.2-4.5-28.3-1.5-36.7 3.9-11.3 11.2-18.7 22.4-23 8.3-3.2 25.3-2.7 39.7 1 6.3 1.7 13.7 4 16.3 5.1 2.7 1.2 5.5 2.1 6.2 2.1s2.5-3 4-6.8c11.4-28.7 33.1-47.2 54.2-45.9 8.7.5 19.2 5.2 26.8 12 6.1 5.4 15.5 19.9 20.6 31.6 2.2 5.2 4.2 8.5 5.1 8.4.7-.1 6.5-2 12.8-4.2 14.8-5.1 22.4-6.4 35.3-5.9 9.4.3 10.9.6 17.1 3.7 7.4 3.8 12.3 8.7 16.4 16.6 3.8 7.2 4.3 24 1.3 37-6.9 29.3-32.7 60.7-62.1 75.5-3.3 1.7-12.4 5.3-20.2 8-15.4 5.4-22.8 9.3-29.3 15.6-10.1 9.7-14 20.5-15.5 42.6-2.3 34.8-4.8 46.7-13.1 63.6-6.4 12.8-16.8 24.5-26 29.1-16.2 8.1-32.1 6.8-59.4-5.1-47.2-20.4-87.6-64.2-106.3-115.4-8.1-22.1-12.5-46.6-12.5-70.4-.1-32.8 6.3-59.9 21.3-90.5 11.8-24.2 25.1-42 45.2-60.8 33.5-31.4 74-49.2 121.8-53.7 10-1 36.3-.4 43.5 1zM433 491c15 5.1 26.2 12.4 38.1 24.6 10.9 11.3 16 21.1 17.8 34 2.1 14.7-.6 17.1-18.4 16.1-28.6-1.6-48.1-9-63-24.1-11.2-11.3-18.8-25.9-20.2-38.6-1.3-13.3 2-15.1 25.7-14.6 10.7.3 14.9.8 20 2.6zm171.5 6c5.7 1.3 6.8 3.2 6.2 11.5-.6 9.3-3.3 16.6-10.1 27-6.5 10-12.4 16.1-21.7 22.8-16 11.3-32 16.7-49.9 16.7-10 0-10.8-.1-13-2.5-2.1-2.2-2.2-3-1.7-9.7.6-6.2 1.5-9 6.4-18.8 5.2-10.5 6.7-12.4 16.3-22.1 13.4-13.5 24.3-20.1 40.3-24.4 6-1.6 21.3-1.9 27.2-.5z"/><path d="M493 308.6c-5.9 2.1-12.9 7.3-18.5 13.7s-14.3 23.1-15.1 28.9c-.6 4.2-.5 4.4 3.2 6.3 5.1 2.7 19.9 17.5 25.7 25.6 2.5 3.6 6.4 10 8.5 14.2l3.9 7.6 2.4-5.2c4.9-10.5 14.3-23.1 26-34.9l11.7-11.7-1.2-5.3c-3.1-13.5-16.9-32.4-27.5-37.8-5.8-2.9-13.4-3.5-19.1-1.4z"/><path d="M588.7 349.6c-10.5 1.9-31.6 10.4-39.4 16-14.3 10.2-24.1 21.4-32.6 37.4-7.6 14.3-9 20-9.2 38.7-.2 18.2-.5 19.3-6.6 19.3-5.6 0-6.5-2.1-7.3-17-.9-17.4-2.2-24.3-6.1-33.3-9.1-21.1-24-37.5-44.8-49.1-14-7.9-36.7-13.6-48.4-12.2-9.1 1.1-16.6 5.4-19.8 11.6-4.1 8-3.6 19.3 1.5 35.4 5.2 16.2 16 30.9 33.4 45.5 14.2 12 25.6 17.8 48.4 24.7 14.1 4.3 27.8 11.3 35.2 18.2 3.6 3.3 7.4 7.6 8.5 9.6s2.2 3.6 2.5 3.6 1.9-2.4 3.7-5.3c4.4-7.2 12.5-15.1 20.7-19.9 3.9-2.3 13.3-6.3 21-9 17.8-6.2 23.9-9.3 35.1-17.8 16.8-12.7 27.5-25.1 34-39.5 7.6-16.6 10-35.1 5.8-44.5-2.1-4.9-6.9-9.5-11.8-11.5-4.8-2-15.4-2.4-23.8-.9zM402.2 505.2c1.1 9.3 10.1 23.1 20.4 31.2 11.1 8.7 25.8 13.8 43.8 15.2l8.9.7-.7-3.4c-.3-1.8-1.8-5.8-3.2-8.8-9.8-21.5-37.8-39.1-62.2-39.1h-7.5zm181.3 5.4c-4.2.8-11.2 3.4-17.4 6.5-8.9 4.4-11.8 6.5-19.1 13.8-7.1 7.1-9.4 10.2-13.3 18.1-6.2 12.4-6.2 13.4.1 12.6 9.1-1.3 14.8-2.9 23.2-6.8 18.1-8.3 32.3-22.9 38-39l1.9-5.3-2.2-.7c-3-.8-3.2-.8-11.2.8z"/></g><path fill="#E4C9BC" stroke="#E4C9BC" stroke-width="1.9" d="M576.5 351.9c-14.6 5.3-20.9 8.3-27.3 12.8-14.4 10.3-25 22.3-33.5 38.3-6.7 12.5-8.7 20.3-9.2 34.5l-.4 12 .9-11.9c1.1-14.2 3.6-23.1 9.7-34.6 8.5-16 18.3-27.2 32.6-37.4 6.5-4.6 25.2-12.8 34.7-15.1 3-.7 4.4-1.4 3-1.4s-6.1 1.2-10.5 2.8zm-161.2-.8c17.8 4.2 35.4 13.6 50.5 27.2 3.6 3.2 4 3.4 1.7.8-4.1-4.5-17.1-14.2-24.8-18.5-7.1-4-25.5-10.7-29-10.5-1.3.1-.7.5 1.6 1zM398 432.3c6.5 7 18.4 16.8 26.4 21.7 7.4 4.5 19.1 9.3 33.3 13.6 11.7 3.6 25.7 10.2 32 15.2 2.9 2.3 7.1 6.9 9.5 10.2 2.3 3.3 4.7 6 5.2 6 .8 0 .8-.3 0-.8-.5-.4-2-2.4-3.3-4.4-6.2-10.3-23.6-21.2-43.3-27.2-26.8-8.1-38.1-14.6-57.8-33-5.2-4.9-5.6-5.1-2-1.3zm200.5 1.9c-6.5 6.7-21.4 17.8-29 21.7-3.3 1.6-12.1 5.1-19.5 7.7-7.4 2.5-16.4 6.2-19.9 8.2-6.1 3.4-16.1 11.2-14.3 11.2.5 0 1.9-1.2 3.3-2.6 4.3-4.6 15.9-10.6 30.3-15.6 20.9-7.3 30-12.4 44.2-24.7 3.9-3.5 11-11.1 10.2-11.1-.2 0-2.6 2.3-5.3 5.2zm-75.7 60c-5.2 6.6-6.6 9.1-9.2 17-2.6 7.8-3.1 11.8-4.6 35.5-1.1 16.5-2.8 26.8-6.5 37.8-3.6 10.6-3.7 11.4-1.5 6.5 5.4-11.4 8-26.2 10-56.8 1.4-20.7 4-29 12.8-40 1.9-2.3 3.2-4.2 2.9-4.2-.2 0-2 1.9-3.9 4.2zm-83.8 0c16.5 6.8 35.6 23.1 42.7 36.3 1.8 3.3 3.3 5.5 3.3 4.9 0-.5-1.6-3.7-3.6-7-4.8-8.1-17.2-20.4-26.9-26.8-7.6-5-19.2-10.6-21.8-10.6-.7 0 2.2 1.5 6.3 3.2z"/><g fill="#F2F2F2" stroke="#F2F2F2" stroke-width="1.9"><path d="M466.6 234c-48 8-88.6 30.8-121.4 68.1-15.7 17.7-29.3 41.1-38 64.9-7.6 20.9-10.9 38.2-11.9 62-2.2 55.8 20.1 111.8 60.6 152.1 18.1 18 34.4 29.4 55.9 39.3 16.5 7.5 25.1 9.7 37.2 9.7 16.6 0 24.1-3.2 35.1-14.9 9.6-10.1 15.7-21.8 19.9-38 2.8-11.1 3.9-19.5 5-38.7.5-9.4 1.6-19.7 2.5-23 3.7-14.3 12.5-26.1 24.2-32.2 3.2-1.7 11.8-5.2 19.2-7.8 23.1-8 31.1-12.5 46.3-25.9 18.5-16.3 30.5-36.1 35.8-58.9 2.6-11.2 2.4-24.9-.4-32.7-3.4-9.3-11.9-17.3-22-20.6-3.7-1.3-7.6-1.5-17.5-1.2-12.1.4-13.3.6-28 5.7-8.4 2.8-15.5 5.1-15.6 4.9s-1.9-4.1-3.9-8.8c-11.3-26.3-28.6-42.7-46.3-43.8-21.1-1.4-43.1 17.1-53.9 45.3q-2.85 7.5-4.5 7.5c-.8 0-4.3-1.1-7.6-2.4-3.3-1.4-10.7-3.7-16.4-5.2-13.7-3.6-30.3-3.8-39-.5-10.6 4-17.7 12.5-21.4 25.6-2.7 9-1.6 19.5 3.6 35 5.9 17.9 12.1 27.6 27.9 43.5 18.7 18.9 30.3 25.8 60.5 36.1 17.5 5.9 20.9 7.4 28.8 12.7 5.5 3.6 11.3 12.3 14 20.6 2 6.4 2.2 9 2 25.1-.1 19-1.2 26.7-5.9 42.5-5.2 17.1-14.9 30.7-25.9 36.1-4.4 2.1-6.3 2.4-16.5 2.4-13.8-.1-17.8-1.3-38.5-11.6-16.2-8-28.1-16.2-41.3-28.5-20.1-18.7-40-48-49.5-73-18.3-47.9-17.5-96.2 2.4-144.6 3.5-8.5 16.6-31.9 22.3-39.8 10-13.8 24-27.2 46.3-44.3 7.3-5.6 27.2-16.2 38.8-20.7 28.6-11 64.2-15.5 93.5-11.6 14 1.9 37 7.8 49.6 12.7 32.1 12.6 66.7 41 86.9 71.4 16 24.1 26.9 51.8 31 79 2.2 14.9 2 43.9-.5 59-4 24.4-12.8 48.7-25.1 69.1-8.4 13.9-14.4 21.7-26.5 34.4-36.4 37.9-86.8 59.8-137.9 60-9.2.1-11.5 1.2-11.5 5.8 0 5 2.1 5.5 20.4 4.9 24.8-.8 40.5-4.2 65.4-14.1 46.8-18.8 85.8-55.1 107.7-100.1 20.4-42 26.2-87.3 17-132.5-6.4-31.6-20.6-61.4-41.4-87.2-10.2-12.7-32.4-32.8-46.3-41.9-25.4-16.7-47.5-24.8-86.4-31.8-9.7-1.8-46-1.2-58.8.9zm45.3 74.3c6.2 2.9 17 13.9 21.5 21.9 4.2 7.6 8.6 18.3 8.6 21 0 1-5.5 7.3-12.3 14.1-12.7 12.6-21.4 24.2-26.2 35.1-1.4 3.1-3 5.4-3.5 5.1-.6-.4-2.2-3-3.6-5.8-7.7-15.4-25.2-36.1-35.2-41.7-4.9-2.7-5-3.6-2.1-12.3 7.7-23.1 27.9-41.9 43.3-40.1 2.6.3 6.9 1.5 9.5 2.7zm102.8 41c10 5.3 13.9 13.9 13 28.6-1.5 25.3-16.7 50.7-41.2 69.1-11.2 8.4-18.3 12-36 18.2-22.7 7.9-34 15.7-42.2 29-2 3.2-4.1 5.8-4.7 5.8s-2.4-2-3.9-4.4c-7.9-12.5-20.5-20-50.4-30.1-11.4-3.8-19.9-7.3-25.1-10.5-19.4-11.5-38.3-31.7-46.1-49.3-1.6-3.4-4.1-10.7-5.6-16.1-6-21.5-.8-35.7 14.9-40.6 2.6-.8 7.8-1.1 15.5-.8 13.5.6 24.4 3.8 39.5 11.7 23 11.9 42.3 34.7 48.5 57.1 1.3 4.7 2.5 13.4 3.2 23.5.7 10.8 1.5 16.7 2.5 18.2 1.8 2.8 6.8 3.1 8 .5.4-.9.9-8.7 1-17.2.2-12.8.6-16.7 2.4-22.5 8.4-26.5 29.5-51.6 52.1-61.8 10-4.6 21.4-8.7 26.9-9.7 7.5-1.4 24-.6 27.7 1.3z"/><path d="M398.7 490.3c-4.3.8-7.5 2.1-8.9 3.5-2.1 2-2.1 2.5-1 9.6 4.2 26.9 26.7 50.3 55.2 57.5 14.6 3.7 33.8 5.1 39.8 3 3.9-1.3 4.6-3.5 3.7-11.6-1.4-13.6-6.9-24.5-17.9-35.6-12.5-12.6-27-21.5-41.1-25.2-8.2-2.1-21.8-2.7-29.8-1.2zm23.5 11.3c10.7 2.4 20 6.7 28.1 12.8 13.1 9.8 19.7 18.3 24.4 31.3l2.3 6.3-2.3 1.1c-3.4 1.5-23.2-1.3-33.7-4.7-11-3.7-21.9-11-28.7-19.4-9.2-11.5-14.6-25.6-10.6-27.9 2.7-1.6 12.4-1.3 20.5.5zm152-1.1c-15.7 5.4-27.4 12.9-38.3 24.1-11.8 12.3-19.6 26.9-20.6 38.5-.9 10.2 0 10.9 13.7 10.9 20.5 0 35.2-5.5 54.3-20.4 15.1-11.9 26.6-31.9 26.7-46.7 0-7.8-.9-8.4-15.7-8.7-11.5-.2-13.5 0-20.1 2.3zm23.6 11.5c.4 3.4-7.1 17.7-12.8 24.4-5.4 6.3-15.5 14.3-22.8 18-9 4.6-22.8 8.6-29.3 8.6-6.9 0-7.2-.7-3.5-8.6 7.8-16.7 20.8-30.4 36.1-38 11-5.5 17.8-7.3 26-7.1 5.6.2 6 .4 6.3 2.7z"/></g></svg>